<?xml version="1.0" standalone="no"?>
<!DOCTYPE svg PUBLIC "-//W3C//DTD SVG 20010904//EN"
 "http://www.w3.org/TR/2001/REC-SVG-20010904/DTD/svg10.dtd">
<svg version="1.0" xmlns="http://www.w3.org/2000/svg"
 width="225.000000pt" height="225.000000pt" viewBox="0 0 225.000000 225.000000"
 preserveAspectRatio="xMidYMid meet">
<metadata>
Created by potrace 1.14, written by Peter Selinger 2001-2017
</metadata>
<g transform="translate(0.000000,225.000000) scale(0.100000,-0.100000)"
fill="#000000" stroke="none">
<path d="M945 2076 c-203 -39 -375 -134 -521 -287 -136 -144 -215 -300 -249
-498 -34 -193 -1 -421 85 -591 92 -182 276 -359 456 -441 184 -84 407 -110
594 -71 203 42 374 136 511 279 401 420 345 1082 -121 1435 -82 63 -222 131
-325 158 -103 28 -327 36 -430 16z m290 -800 c69 -53 92 -143 56 -221 -33 -72
-86 -105 -166 -105 -80 0 -133 33 -166 105 -23 49 -24 94 -4 143 34 81 89 114
181 109 49 -2 69 -8 99 -31z m-402 -270 c34 -73 88 -130 155 -163 47 -22 70
-27 137 -27 68 0 88 4 135 28 30 15 68 39 84 54 33 32 86 120 86 145 0 16 19
17 250 17 l251 0 -7 -37 c-55 -321 -261 -563 -564 -661 -238 -78 -527 -29
-725 121 -153 116 -262 281 -305 459 -31 131 -58 118 229 118 l250 0 24 -54z"/>
</g>
</svg>
